<?xml version="1.0" encoding="utf-8" standalone="no"?>
<!DOCTYPE svg PUBLIC "-//W3C//DTD SVG 1.1//EN"
  "http://www.w3.org/Graphics/SVG/1.1/DTD/svg11.dtd">
<!-- Created with matplotlib (https://matplotlib.org/) -->
<svg height="345.6pt" version="1.1" viewBox="0 0 460.8 345.6" width="460.8pt" xmlns="http://www.w3.org/2000/svg" xmlns:xlink="http://www.w3.org/1999/xlink">
 <metadata>
  <rdf:RDF xmlns:cc="http://creativecommons.org/ns#" xmlns:dc="http://purl.org/dc/elements/1.1/" xmlns:rdf="http://www.w3.org/1999/02/22-rdf-syntax-ns#">
   <cc:Work>
    <dc:type rdf:resource="http://purl.org/dc/dcmitype/StillImage"/>
    <dc:date>2021-10-09T03:55:16.075338</dc:date>
    <dc:format>image/svg+xml</dc:format>
    <dc:creator>
     <cc:Agent>
      <dc:title>Matplotlib v3.3.4, https://matplotlib.org/</dc:title>
     </cc:Agent>
    </dc:creator>
   </cc:Work>
  </rdf:RDF>
 </metadata>
 <defs>
  <style type="text/css">*{stroke-linecap:butt;stroke-linejoin:round;}</style>
 </defs>
 <g id="figure_1">
  <g id="patch_1">
   <path d="M 0 345.6 
L 460.8 345.6 
L 460.8 0 
L 0 0 
z
" style="fill:#ffffff;"/>
  </g>
  <g id="axes_1">
   <g id="patch_2">
    <path d="M 57.6 307.584 
L 414.72 307.584 
L 414.72 41.472 
L 57.6 41.472 
z
" style="fill:#ffffff;"/>
   </g>
   <g id="matplotlib.axis_1">
    <g id="xtick_1">
     <g id="line2d_1">
      <path clip-path="url(#p2c3d99dcc4)" d="M 95.476364 307.584 
L 95.476364 41.472 
" style="fill:none;stroke:#b0b0b0;stroke-linecap:square;stroke-opacity:0.2;stroke-width:0.8;"/>
     </g>
     <g id="line2d_2">
      <defs>
       <path d="M 0 0 
L 0 3.5 
" id="m004c8a0ef7" style="stroke:#000000;stroke-width:0.8;"/>
      </defs>
      <g>
       <use style="stroke:#000000;stroke-width:0.8;" x="95.476364" xlink:href="#m004c8a0ef7" y="307.584"/>
      </g>
     </g>
     <g id="text_1">
      <!-- 2 -->
      <g transform="translate(92.295114 322.182437)scale(0.1 -0.1)">
       <defs>
        <path d="M 19.1875 8.296875 
L 53.609375 8.296875 
L 53.609375 0 
L 7.328125 0 
L 7.328125 8.296875 
Q 12.9375 14.109375 22.625 23.890625 
Q 32.328125 33.6875 34.8125 36.53125 
Q 39.546875 41.84375 41.421875 45.53125 
Q 43.3125 49.21875 43.3125 52.78125 
Q 43.3125 58.59375 39.234375 62.25 
Q 35.15625 65.921875 28.609375 65.921875 
Q 23.96875 65.921875 18.8125 64.3125 
Q 13.671875 62.703125 7.8125 59.421875 
L 7.8125 69.390625 
Q 13.765625 71.78125 18.9375 73 
Q 24.125 74.21875 28.421875 74.21875 
Q 39.75 74.21875 46.484375 68.546875 
Q 53.21875 62.890625 53.21875 53.421875 
Q 53.21875 48.921875 51.53125 44.890625 
Q 49.859375 40.875 45.40625 35.40625 
Q 44.1875 33.984375 37.640625 27.21875 
Q 31.109375 20.453125 19.1875 8.296875 
z
" id="DejaVuSans-50"/>
       </defs>
       <use xlink:href="#DejaVuSans-50"/>
      </g>
     </g>
    </g>
    <g id="xtick_2">
     <g id="line2d_3">
      <path clip-path="url(#p2c3d99dcc4)" d="M 138.763636 307.584 
L 138.763636 41.472 
" style="fill:none;stroke:#b0b0b0;stroke-linecap:square;stroke-opacity:0.2;stroke-width:0.8;"/>
     </g>
     <g id="line2d_4">
      <g>
       <use style="stroke:#000000;stroke-width:0.8;" x="138.763636" xlink:href="#m004c8a0ef7" y="307.584"/>
      </g>
     </g>
     <g id="text_2">
      <!-- 4 -->
      <g transform="translate(135.582386 322.182437)scale(0.1 -0.1)">
       <defs>
        <path d="M 37.796875 64.3125 
L 12.890625 25.390625 
L 37.796875 25.390625 
z
M 35.203125 72.90625 
L 47.609375 72.90625 
L 47.609375 25.390625 
L 58.015625 25.390625 
L 58.015625 17.1875 
L 47.609375 17.1875 
L 47.609375 0 
L 37.796875 0 
L 37.796875 17.1875 
L 4.890625 17.1875 
L 4.890625 26.703125 
z
" id="DejaVuSans-52"/>
       </defs>
       <use xlink:href="#DejaVuSans-52"/>
      </g>
     </g>
    </g>
    <g id="xtick_3">
     <g id="line2d_5">
      <path clip-path="url(#p2c3d99dcc4)" d="M 182.050909 307.584 
L 182.050909 41.472 
" style="fill:none;stroke:#b0b0b0;stroke-linecap:square;stroke-opacity:0.2;stroke-width:0.8;"/>
     </g>
     <g id="line2d_6">
      <g>
       <use style="stroke:#000000;stroke-width:0.8;" x="182.050909" xlink:href="#m004c8a0ef7" y="307.584"/>
      </g>
     </g>
     <g id="text_3">
      <!-- 6 -->
      <g transform="translate(178.869659 322.182437)scale(0.1 -0.1)">
       <defs>
        <path d="M 33.015625 40.375 
Q 26.375 40.375 22.484375 35.828125 
Q 18.609375 31.296875 18.609375 23.390625 
Q 18.609375 15.53125 22.484375 10.953125 
Q 26.375 6.390625 33.015625 6.390625 
Q 39.65625 6.390625 43.53125 10.953125 
Q 47.40625 15.53125 47.40625 23.390625 
Q 47.40625 31.296875 43.53125 35.828125 
Q 39.65625 40.375 33.015625 40.375 
z
M 52.59375 71.296875 
L 52.59375 62.3125 
Q 48.875 64.0625 45.09375 64.984375 
Q 41.3125 65.921875 37.59375 65.921875 
Q 27.828125 65.921875 22.671875 59.328125 
Q 17.53125 52.734375 16.796875 39.40625 
Q 19.671875 43.65625 24.015625 45.921875 
Q 28.375 48.1875 33.59375 48.1875 
Q 44.578125 48.1875 50.953125 41.515625 
Q 57.328125 34.859375 57.328125 23.390625 
Q 57.328125 12.15625 50.6875 5.359375 
Q 44.046875 -1.421875 33.015625 -1.421875 
Q 20.359375 -1.421875 13.671875 8.265625 
Q 6.984375 17.96875 6.984375 36.375 
Q 6.984375 53.65625 15.1875 63.9375 
Q 23.390625 74.21875 37.203125 74.21875 
Q 40.921875 74.21875 44.703125 73.484375 
Q 48.484375 72.75 52.59375 71.296875 
z
" id="DejaVuSans-54"/>
       </defs>
       <use xlink:href="#DejaVuSans-54"/>
      </g>
     </g>
    </g>
    <g id="xtick_4">
     <g id="line2d_7">
      <path clip-path="url(#p2c3d99dcc4)" d="M 225.338182 307.584 
L 225.338182 41.472 
" style="fill:none;stroke:#b0b0b0;stroke-linecap:square;stroke-opacity:0.2;stroke-width:0.8;"/>
     </g>
     <g id="line2d_8">
      <g>
       <use style="stroke:#000000;stroke-width:0.8;" x="225.338182" xlink:href="#m004c8a0ef7" y="307.584"/>
      </g>
     </g>
     <g id="text_4">
      <!-- 8 -->
      <g transform="translate(222.156932 322.182437)scale(0.1 -0.1)">
       <defs>
        <path d="M 31.78125 34.625 
Q 24.75 34.625 20.71875 30.859375 
Q 16.703125 27.09375 16.703125 20.515625 
Q 16.703125 13.921875 20.71875 10.15625 
Q 24.75 6.390625 31.78125 6.390625 
Q 38.8125 6.390625 42.859375 10.171875 
Q 46.921875 13.96875 46.921875 20.515625 
Q 46.921875 27.09375 42.890625 30.859375 
Q 38.875 34.625 31.78125 34.625 
z
M 21.921875 38.8125 
Q 15.578125 40.375 12.03125 44.71875 
Q 8.5 49.078125 8.5 55.328125 
Q 8.5 64.0625 14.71875 69.140625 
Q 20.953125 74.21875 31.78125 74.21875 
Q 42.671875 74.21875 48.875 69.140625 
Q 55.078125 64.0625 55.078125 55.328125 
Q 55.078125 49.078125 51.53125 44.71875 
Q 48 40.375 41.703125 38.8125 
Q 48.828125 37.15625 52.796875 32.3125 
Q 56.78125 27.484375 56.78125 20.515625 
Q 56.78125 9.90625 50.3125 4.234375 
Q 43.84375 -1.421875 31.78125 -1.421875 
Q 19.734375 -1.421875 13.25 4.234375 
Q 6.78125 9.90625 6.78125 20.515625 
Q 6.78125 27.484375 10.78125 32.3125 
Q 14.796875 37.15625 21.921875 38.8125 
z
M 18.3125 54.390625 
Q 18.3125 48.734375 21.84375 45.5625 
Q 25.390625 42.390625 31.78125 42.390625 
Q 38.140625 42.390625 41.71875 45.5625 
Q 45.3125 48.734375 45.3125 54.390625 
Q 45.3125 60.0625 41.71875 63.234375 
Q 38.140625 66.40625 31.78125 66.40625 
Q 25.390625 66.40625 21.84375 63.234375 
Q 18.3125 60.0625 18.3125 54.390625 
z
" id="DejaVuSans-56"/>
       </defs>
       <use xlink:href="#DejaVuSans-56"/>
      </g>
     </g>
    </g>
    <g id="xtick_5">
     <g id="line2d_9">
      <path clip-path="url(#p2c3d99dcc4)" d="M 268.625455 307.584 
L 268.625455 41.472 
" style="fill:none;stroke:#b0b0b0;stroke-linecap:square;stroke-opacity:0.2;stroke-width:0.8;"/>
     </g>
     <g id="line2d_10">
      <g>
       <use style="stroke:#000000;stroke-width:0.8;" x="268.625455" xlink:href="#m004c8a0ef7" y="307.584"/>
      </g>
     </g>
     <g id="text_5">
      <!-- 10 -->
      <g transform="translate(262.262955 322.182437)scale(0.1 -0.1)">
       <defs>
        <path d="M 12.40625 8.296875 
L 28.515625 8.296875 
L 28.515625 63.921875 
L 10.984375 60.40625 
L 10.984375 69.390625 
L 28.421875 72.90625 
L 38.28125 72.90625 
L 38.28125 8.296875 
L 54.390625 8.296875 
L 54.390625 0 
L 12.40625 0 
z
" id="DejaVuSans-49"/>
        <path d="M 31.78125 66.40625 
Q 24.171875 66.40625 20.328125 58.90625 
Q 16.5 51.421875 16.5 36.375 
Q 16.5 21.390625 20.328125 13.890625 
Q 24.171875 6.390625 31.78125 6.390625 
Q 39.453125 6.390625 43.28125 13.890625 
Q 47.125 21.390625 47.125 36.375 
Q 47.125 51.421875 43.28125 58.90625 
Q 39.453125 66.40625 31.78125 66.40625 
z
M 31.78125 74.21875 
Q 44.046875 74.21875 50.515625 64.515625 
Q 56.984375 54.828125 56.984375 36.375 
Q 56.984375 17.96875 50.515625 8.265625 
Q 44.046875 -1.421875 31.78125 -1.421875 
Q 19.53125 -1.421875 13.0625 8.265625 
Q 6.59375 17.96875 6.59375 36.375 
Q 6.59375 54.828125 13.0625 64.515625 
Q 19.53125 74.21875 31.78125 74.21875 
z
" id="DejaVuSans-48"/>
       </defs>
       <use xlink:href="#DejaVuSans-49"/>
       <use x="63.623047" xlink:href="#DejaVuSans-48"/>
      </g>
     </g>
    </g>
    <g id="xtick_6">
     <g id="line2d_11">
      <path clip-path="url(#p2c3d99dcc4)" d="M 311.912727 307.584 
L 311.912727 41.472 
" style="fill:none;stroke:#b0b0b0;stroke-linecap:square;stroke-opacity:0.2;stroke-width:0.8;"/>
     </g>
     <g id="line2d_12">
      <g>
       <use style="stroke:#000000;stroke-width:0.8;" x="311.912727" xlink:href="#m004c8a0ef7" y="307.584"/>
      </g>
     </g>
     <g id="text_6">
      <!-- 12 -->
      <g transform="translate(305.550227 322.182437)scale(0.1 -0.1)">
       <use xlink:href="#DejaVuSans-49"/>
       <use x="63.623047" xlink:href="#DejaVuSans-50"/>
      </g>
     </g>
    </g>
    <g id="xtick_7">
     <g id="line2d_13">
      <path clip-path="url(#p2c3d99dcc4)" d="M 355.2 307.584 
L 355.2 41.472 
" style="fill:none;stroke:#b0b0b0;stroke-linecap:square;stroke-opacity:0.2;stroke-width:0.8;"/>
     </g>
     <g id="line2d_14">
      <g>
       <use style="stroke:#000000;stroke-width:0.8;" x="355.2" xlink:href="#m004c8a0ef7" y="307.584"/>
      </g>
     </g>
     <g id="text_7">
      <!-- 14 -->
      <g transform="translate(348.8375 322.182437)scale(0.1 -0.1)">
       <use xlink:href="#DejaVuSans-49"/>
       <use x="63.623047" xlink:href="#DejaVuSans-52"/>
      </g>
     </g>
    </g>
    <g id="xtick_8">
     <g id="line2d_15">
      <path clip-path="url(#p2c3d99dcc4)" d="M 398.487273 307.584 
L 398.487273 41.472 
" style="fill:none;stroke:#b0b0b0;stroke-linecap:square;stroke-opacity:0.2;stroke-width:0.8;"/>
     </g>
     <g id="line2d_16">
      <g>
       <use style="stroke:#000000;stroke-width:0.8;" x="398.487273" xlink:href="#m004c8a0ef7" y="307.584"/>
      </g>
     </g>
     <g id="text_8">
      <!-- 16 -->
      <g transform="translate(392.124773 322.182437)scale(0.1 -0.1)">
       <use xlink:href="#DejaVuSans-49"/>
       <use x="63.623047" xlink:href="#DejaVuSans-54"/>
      </g>
     </g>
    </g>
    <g id="text_9">
     <!-- benchmark -->
     <g transform="translate(207.937344 335.860562)scale(0.1 -0.1)">
      <defs>
       <path d="M 48.6875 27.296875 
Q 48.6875 37.203125 44.609375 42.84375 
Q 40.53125 48.484375 33.40625 48.484375 
Q 26.265625 48.484375 22.1875 42.84375 
Q 18.109375 37.203125 18.109375 27.296875 
Q 18.109375 17.390625 22.1875 11.75 
Q 26.265625 6.109375 33.40625 6.109375 
Q 40.53125 6.109375 44.609375 11.75 
Q 48.6875 17.390625 48.6875 27.296875 
z
M 18.109375 46.390625 
Q 20.953125 51.265625 25.265625 53.625 
Q 29.59375 56 35.59375 56 
Q 45.5625 56 51.78125 48.09375 
Q 58.015625 40.1875 58.015625 27.296875 
Q 58.015625 14.40625 51.78125 6.484375 
Q 45.5625 -1.421875 35.59375 -1.421875 
Q 29.59375 -1.421875 25.265625 0.953125 
Q 20.953125 3.328125 18.109375 8.203125 
L 18.109375 0 
L 9.078125 0 
L 9.078125 75.984375 
L 18.109375 75.984375 
z
" id="DejaVuSans-98"/>
       <path d="M 56.203125 29.59375 
L 56.203125 25.203125 
L 14.890625 25.203125 
Q 15.484375 15.921875 20.484375 11.0625 
Q 25.484375 6.203125 34.421875 6.203125 
Q 39.59375 6.203125 44.453125 7.46875 
Q 49.3125 8.734375 54.109375 11.28125 
L 54.109375 2.78125 
Q 49.265625 0.734375 44.1875 -0.34375 
Q 39.109375 -1.421875 33.890625 -1.421875 
Q 20.796875 -1.421875 13.15625 6.1875 
Q 5.515625 13.8125 5.515625 26.8125 
Q 5.515625 40.234375 12.765625 48.109375 
Q 20.015625 56 32.328125 56 
Q 43.359375 56 49.78125 48.890625 
Q 56.203125 41.796875 56.203125 29.59375 
z
M 47.21875 32.234375 
Q 47.125 39.59375 43.09375 43.984375 
Q 39.0625 48.390625 32.421875 48.390625 
Q 24.90625 48.390625 20.390625 44.140625 
Q 15.875 39.890625 15.1875 32.171875 
z
" id="DejaVuSans-101"/>
       <path d="M 54.890625 33.015625 
L 54.890625 0 
L 45.90625 0 
L 45.90625 32.71875 
Q 45.90625 40.484375 42.875 44.328125 
Q 39.84375 48.1875 33.796875 48.1875 
Q 26.515625 48.1875 22.3125 43.546875 
Q 18.109375 38.921875 18.109375 30.90625 
L 18.109375 0 
L 9.078125 0 
L 9.078125 54.6875 
L 18.109375 54.6875 
L 18.109375 46.1875 
Q 21.34375 51.125 25.703125 53.5625 
Q 30.078125 56 35.796875 56 
Q 45.21875 56 50.046875 50.171875 
Q 54.890625 44.34375 54.890625 33.015625 
z
" id="DejaVuSans-110"/>
       <path d="M 48.78125 52.59375 
L 48.78125 44.1875 
Q 44.96875 46.296875 41.140625 47.34375 
Q 37.3125 48.390625 33.40625 48.390625 
Q 24.65625 48.390625 19.8125 42.84375 
Q 14.984375 37.3125 14.984375 27.296875 
Q 14.984375 17.28125 19.8125 11.734375 
Q 24.65625 6.203125 33.40625 6.203125 
Q 37.3125 6.203125 41.140625 7.25 
Q 44.96875 8.296875 48.78125 10.40625 
L 48.78125 2.09375 
Q 45.015625 0.34375 40.984375 -0.53125 
Q 36.96875 -1.421875 32.421875 -1.421875 
Q 20.0625 -1.421875 12.78125 6.34375 
Q 5.515625 14.109375 5.515625 27.296875 
Q 5.515625 40.671875 12.859375 48.328125 
Q 20.21875 56 33.015625 56 
Q 37.15625 56 41.109375 55.140625 
Q 45.0625 54.296875 48.78125 52.59375 
z
" id="DejaVuSans-99"/>
       <path d="M 54.890625 33.015625 
L 54.890625 0 
L 45.90625 0 
L 45.90625 32.71875 
Q 45.90625 40.484375 42.875 44.328125 
Q 39.84375 48.1875 33.796875 48.1875 
Q 26.515625 48.1875 22.3125 43.546875 
Q 18.109375 38.921875 18.109375 30.90625 
L 18.109375 0 
L 9.078125 0 
L 9.078125 75.984375 
L 18.109375 75.984375 
L 18.109375 46.1875 
Q 21.34375 51.125 25.703125 53.5625 
Q 30.078125 56 35.796875 56 
Q 45.21875 56 50.046875 50.171875 
Q 54.890625 44.34375 54.890625 33.015625 
z
" id="DejaVuSans-104"/>
       <path d="M 52 44.1875 
Q 55.375 50.25 60.0625 53.125 
Q 64.75 56 71.09375 56 
Q 79.640625 56 84.28125 50.015625 
Q 88.921875 44.046875 88.921875 33.015625 
L 88.921875 0 
L 79.890625 0 
L 79.890625 32.71875 
Q 79.890625 40.578125 77.09375 44.375 
Q 74.3125 48.1875 68.609375 48.1875 
Q 61.625 48.1875 57.5625 43.546875 
Q 53.515625 38.921875 53.515625 30.90625 
L 53.515625 0 
L 44.484375 0 
L 44.484375 32.71875 
Q 44.484375 40.625 41.703125 44.40625 
Q 38.921875 48.1875 33.109375 48.1875 
Q 26.21875 48.1875 22.15625 43.53125 
Q 18.109375 38.875 18.109375 30.90625 
L 18.109375 0 
L 9.078125 0 
L 9.078125 54.6875 
L 18.109375 54.6875 
L 18.109375 46.1875 
Q 21.1875 51.21875 25.484375 53.609375 
Q 29.78125 56 35.6875 56 
Q 41.65625 56 45.828125 52.96875 
Q 50 49.953125 52 44.1875 
z
" id="DejaVuSans-109"/>
       <path d="M 34.28125 27.484375 
Q 23.390625 27.484375 19.1875 25 
Q 14.984375 22.515625 14.984375 16.5 
Q 14.984375 11.71875 18.140625 8.90625 
Q 21.296875 6.109375 26.703125 6.109375 
Q 34.1875 6.109375 38.703125 11.40625 
Q 43.21875 16.703125 43.21875 25.484375 
L 43.21875 27.484375 
z
M 52.203125 31.203125 
L 52.203125 0 
L 43.21875 0 
L 43.21875 8.296875 
Q 40.140625 3.328125 35.546875 0.953125 
Q 30.953125 -1.421875 24.3125 -1.421875 
Q 15.921875 -1.421875 10.953125 3.296875 
Q 6 8.015625 6 15.921875 
Q 6 25.140625 12.171875 29.828125 
Q 18.359375 34.515625 30.609375 34.515625 
L 43.21875 34.515625 
L 43.21875 35.40625 
Q 43.21875 41.609375 39.140625 45 
Q 35.0625 48.390625 27.6875 48.390625 
Q 23 48.390625 18.546875 47.265625 
Q 14.109375 46.140625 10.015625 43.890625 
L 10.015625 52.203125 
Q 14.9375 54.109375 19.578125 55.046875 
Q 24.21875 56 28.609375 56 
Q 40.484375 56 46.34375 49.84375 
Q 52.203125 43.703125 52.203125 31.203125 
z
" id="DejaVuSans-97"/>
       <path d="M 41.109375 46.296875 
Q 39.59375 47.171875 37.8125 47.578125 
Q 36.03125 48 33.890625 48 
Q 26.265625 48 22.1875 43.046875 
Q 18.109375 38.09375 18.109375 28.8125 
L 18.109375 0 
L 9.078125 0 
L 9.078125 54.6875 
L 18.109375 54.6875 
L 18.109375 46.1875 
Q 20.953125 51.171875 25.484375 53.578125 
Q 30.03125 56 36.53125 56 
Q 37.453125 56 38.578125 55.875 
Q 39.703125 55.765625 41.0625 55.515625 
z
" id="DejaVuSans-114"/>
       <path d="M 9.078125 75.984375 
L 18.109375 75.984375 
L 18.109375 31.109375 
L 44.921875 54.6875 
L 56.390625 54.6875 
L 27.390625 29.109375 
L 57.625 0 
L 45.90625 0 
L 18.109375 26.703125 
L 18.109375 0 
L 9.078125 0 
z
" id="DejaVuSans-107"/>
      </defs>
      <use xlink:href="#DejaVuSans-98"/>
      <use x="63.476562" xlink:href="#DejaVuSans-101"/>
      <use x="125" xlink:href="#DejaVuSans-110"/>
      <use x="188.378906" xlink:href="#DejaVuSans-99"/>
      <use x="243.359375" xlink:href="#DejaVuSans-104"/>
      <use x="306.738281" xlink:href="#DejaVuSans-109"/>
      <use x="404.150391" xlink:href="#DejaVuSans-97"/>
      <use x="465.429688" xlink:href="#DejaVuSans-114"/>
      <use x="506.542969" xlink:href="#DejaVuSans-107"/>
     </g>
    </g>
   </g>
   <g id="matplotlib.axis_2">
    <g id="ytick_1">
     <g id="line2d_17">
      <path clip-path="url(#p2c3d99dcc4)" d="M 57.6 296.141416 
L 414.72 296.141416 
" style="fill:none;stroke:#b0b0b0;stroke-linecap:square;stroke-opacity:0.2;stroke-width:0.8;"/>
     </g>
     <g id="line2d_18">
      <defs>
       <path d="M 0 0 
L -3.5 0 
" id="m2fec10ecd9" style="stroke:#000000;stroke-width:0.8;"/>
      </defs>
      <g>
       <use style="stroke:#000000;stroke-width:0.8;" x="57.6" xlink:href="#m2fec10ecd9" y="296.141416"/>
      </g>
     </g>
     <g id="text_10">
      <!-- 0 -->
      <g transform="translate(44.2375 299.940635)scale(0.1 -0.1)">
       <use xlink:href="#DejaVuSans-48"/>
      </g>
     </g>
    </g>
    <g id="ytick_2">
     <g id="line2d_19">
      <path clip-path="url(#p2c3d99dcc4)" d="M 57.6 254.522561 
L 414.72 254.522561 
" style="fill:none;stroke:#b0b0b0;stroke-linecap:square;stroke-opacity:0.2;stroke-width:0.8;"/>
     </g>
     <g id="line2d_20">
      <g>
       <use style="stroke:#000000;stroke-width:0.8;" x="57.6" xlink:href="#m2fec10ecd9" y="254.522561"/>
      </g>
     </g>
     <g id="text_11">
      <!-- 20000 -->
      <g transform="translate(18.7875 258.32178)scale(0.1 -0.1)">
       <use xlink:href="#DejaVuSans-50"/>
       <use x="63.623047" xlink:href="#DejaVuSans-48"/>
       <use x="127.246094" xlink:href="#DejaVuSans-48"/>
       <use x="190.869141" xlink:href="#DejaVuSans-48"/>
       <use x="254.492188" xlink:href="#DejaVuSans-48"/>
      </g>
     </g>
    </g>
    <g id="ytick_3">
     <g id="line2d_21">
      <path clip-path="url(#p2c3d99dcc4)" d="M 57.6 212.903706 
L 414.72 212.903706 
" style="fill:none;stroke:#b0b0b0;stroke-linecap:square;stroke-opacity:0.2;stroke-width:0.8;"/>
     </g>
     <g id="line2d_22">
      <g>
       <use style="stroke:#000000;stroke-width:0.8;" x="57.6" xlink:href="#m2fec10ecd9" y="212.903706"/>
      </g>
     </g>
     <g id="text_12">
      <!-- 40000 -->
      <g transform="translate(18.7875 216.702925)scale(0.1 -0.1)">
       <use xlink:href="#DejaVuSans-52"/>
       <use x="63.623047" xlink:href="#DejaVuSans-48"/>
       <use x="127.246094" xlink:href="#DejaVuSans-48"/>
       <use x="190.869141" xlink:href="#DejaVuSans-48"/>
       <use x="254.492188" xlink:href="#DejaVuSans-48"/>
      </g>
     </g>
    </g>
    <g id="ytick_4">
     <g id="line2d_23">
      <path clip-path="url(#p2c3d99dcc4)" d="M 57.6 171.284851 
L 414.72 171.284851 
" style="fill:none;stroke:#b0b0b0;stroke-linecap:square;stroke-opacity:0.2;stroke-width:0.8;"/>
     </g>
     <g id="line2d_24">
      <g>
       <use style="stroke:#000000;stroke-width:0.8;" x="57.6" xlink:href="#m2fec10ecd9" y="171.284851"/>
      </g>
     </g>
     <g id="text_13">
      <!-- 60000 -->
      <g transform="translate(18.7875 175.084069)scale(0.1 -0.1)">
       <use xlink:href="#DejaVuSans-54"/>
       <use x="63.623047" xlink:href="#DejaVuSans-48"/>
       <use x="127.246094" xlink:href="#DejaVuSans-48"/>
       <use x="190.869141" xlink:href="#DejaVuSans-48"/>
       <use x="254.492188" xlink:href="#DejaVuSans-48"/>
      </g>
     </g>
    </g>
    <g id="ytick_5">
     <g id="line2d_25">
      <path clip-path="url(#p2c3d99dcc4)" d="M 57.6 129.665996 
L 414.72 129.665996 
" style="fill:none;stroke:#b0b0b0;stroke-linecap:square;stroke-opacity:0.2;stroke-width:0.8;"/>
     </g>
     <g id="line2d_26">
      <g>
       <use style="stroke:#000000;stroke-width:0.8;" x="57.6" xlink:href="#m2fec10ecd9" y="129.665996"/>
      </g>
     </g>
     <g id="text_14">
      <!-- 80000 -->
      <g transform="translate(18.7875 133.465214)scale(0.1 -0.1)">
       <use xlink:href="#DejaVuSans-56"/>
       <use x="63.623047" xlink:href="#DejaVuSans-48"/>
       <use x="127.246094" xlink:href="#DejaVuSans-48"/>
       <use x="190.869141" xlink:href="#DejaVuSans-48"/>
       <use x="254.492188" xlink:href="#DejaVuSans-48"/>
      </g>
     </g>
    </g>
    <g id="ytick_6">
     <g id="line2d_27">
      <path clip-path="url(#p2c3d99dcc4)" d="M 57.6 88.047141 
L 414.72 88.047141 
" style="fill:none;stroke:#b0b0b0;stroke-linecap:square;stroke-opacity:0.2;stroke-width:0.8;"/>
     </g>
     <g id="line2d_28">
      <g>
       <use style="stroke:#000000;stroke-width:0.8;" x="57.6" xlink:href="#m2fec10ecd9" y="88.047141"/>
      </g>
     </g>
     <g id="text_15">
      <!-- 100000 -->
      <g transform="translate(12.425 91.846359)scale(0.1 -0.1)">
       <use xlink:href="#DejaVuSans-49"/>
       <use x="63.623047" xlink:href="#DejaVuSans-48"/>
       <use x="127.246094" xlink:href="#DejaVuSans-48"/>
       <use x="190.869141" xlink:href="#DejaVuSans-48"/>
       <use x="254.492188" xlink:href="#DejaVuSans-48"/>
       <use x="318.115234" xlink:href="#DejaVuSans-48"/>
      </g>
     </g>
    </g>
    <g id="ytick_7">
     <g id="line2d_29">
      <path clip-path="url(#p2c3d99dcc4)" d="M 57.6 46.428285 
L 414.72 46.428285 
" style="fill:none;stroke:#b0b0b0;stroke-linecap:square;stroke-opacity:0.2;stroke-width:0.8;"/>
     </g>
     <g id="line2d_30">
      <g>
       <use style="stroke:#000000;stroke-width:0.8;" x="57.6" xlink:href="#m2fec10ecd9" y="46.428285"/>
      </g>
     </g>
     <g id="text_16">
      <!-- 120000 -->
      <g transform="translate(12.425 50.227504)scale(0.1 -0.1)">
       <use xlink:href="#DejaVuSans-49"/>
       <use x="63.623047" xlink:href="#DejaVuSans-50"/>
       <use x="127.246094" xlink:href="#DejaVuSans-48"/>
       <use x="190.869141" xlink:href="#DejaVuSans-48"/>
       <use x="254.492188" xlink:href="#DejaVuSans-48"/>
       <use x="318.115234" xlink:href="#DejaVuSans-48"/>
      </g>
     </g>
    </g>
    <g id="text_17">
     <!-- number of arena cells -->
     <g transform="translate(6.345312 229.153781)rotate(-90)scale(0.1 -0.1)">
      <defs>
       <path d="M 8.5 21.578125 
L 8.5 54.6875 
L 17.484375 54.6875 
L 17.484375 21.921875 
Q 17.484375 14.15625 20.5 10.265625 
Q 23.53125 6.390625 29.59375 6.390625 
Q 36.859375 6.390625 41.078125 11.03125 
Q 45.3125 15.671875 45.3125 23.6875 
L 45.3125 54.6875 
L 54.296875 54.6875 
L 54.296875 0 
L 45.3125 0 
L 45.3125 8.40625 
Q 42.046875 3.421875 37.71875 1 
Q 33.40625 -1.421875 27.6875 -1.421875 
Q 18.265625 -1.421875 13.375 4.4375 
Q 8.5 10.296875 8.5 21.578125 
z
M 31.109375 56 
z
" id="DejaVuSans-117"/>
       <path id="DejaVuSans-32"/>
       <path d="M 30.609375 48.390625 
Q 23.390625 48.390625 19.1875 42.75 
Q 14.984375 37.109375 14.984375 27.296875 
Q 14.984375 17.484375 19.15625 11.84375 
Q 23.34375 6.203125 30.609375 6.203125 
Q 37.796875 6.203125 41.984375 11.859375 
Q 46.1875 17.53125 46.1875 27.296875 
Q 46.1875 37.015625 41.984375 42.703125 
Q 37.796875 48.390625 30.609375 48.390625 
z
M 30.609375 56 
Q 42.328125 56 49.015625 48.375 
Q 55.71875 40.765625 55.71875 27.296875 
Q 55.71875 13.875 49.015625 6.21875 
Q 42.328125 -1.421875 30.609375 -1.421875 
Q 18.84375 -1.421875 12.171875 6.21875 
Q 5.515625 13.875 5.515625 27.296875 
Q 5.515625 40.765625 12.171875 48.375 
Q 18.84375 56 30.609375 56 
z
" id="DejaVuSans-111"/>
       <path d="M 37.109375 75.984375 
L 37.109375 68.5 
L 28.515625 68.5 
Q 23.6875 68.5 21.796875 66.546875 
Q 19.921875 64.59375 19.921875 59.515625 
L 19.921875 54.6875 
L 34.71875 54.6875 
L 34.71875 47.703125 
L 19.921875 47.703125 
L 19.921875 0 
L 10.890625 0 
L 10.890625 47.703125 
L 2.296875 47.703125 
L 2.296875 54.6875 
L 10.890625 54.6875 
L 10.890625 58.5 
Q 10.890625 67.625 15.140625 71.796875 
Q 19.390625 75.984375 28.609375 75.984375 
z
" id="DejaVuSans-102"/>
       <path d="M 9.421875 75.984375 
L 18.40625 75.984375 
L 18.40625 0 
L 9.421875 0 
z
" id="DejaVuSans-108"/>
       <path d="M 44.28125 53.078125 
L 44.28125 44.578125 
Q 40.484375 46.53125 36.375 47.5 
Q 32.28125 48.484375 27.875 48.484375 
Q 21.1875 48.484375 17.84375 46.4375 
Q 14.5 44.390625 14.5 40.28125 
Q 14.5 37.15625 16.890625 35.375 
Q 19.28125 33.59375 26.515625 31.984375 
L 29.59375 31.296875 
Q 39.15625 29.25 43.1875 25.515625 
Q 47.21875 21.78125 47.21875 15.09375 
Q 47.21875 7.46875 41.1875 3.015625 
Q 35.15625 -1.421875 24.609375 -1.421875 
Q 20.21875 -1.421875 15.453125 -0.5625 
Q 10.6875 0.296875 5.421875 2 
L 5.421875 11.28125 
Q 10.40625 8.6875 15.234375 7.390625 
Q 20.0625 6.109375 24.8125 6.109375 
Q 31.15625 6.109375 34.5625 8.28125 
Q 37.984375 10.453125 37.984375 14.40625 
Q 37.984375 18.0625 35.515625 20.015625 
Q 33.0625 21.96875 24.703125 23.78125 
L 21.578125 24.515625 
Q 13.234375 26.265625 9.515625 29.90625 
Q 5.8125 33.546875 5.8125 39.890625 
Q 5.8125 47.609375 11.28125 51.796875 
Q 16.75 56 26.8125 56 
Q 31.78125 56 36.171875 55.265625 
Q 40.578125 54.546875 44.28125 53.078125 
z
" id="DejaVuSans-115"/>
      </defs>
      <use xlink:href="#DejaVuSans-110"/>
      <use x="63.378906" xlink:href="#DejaVuSans-117"/>
      <use x="126.757812" xlink:href="#DejaVuSans-109"/>
      <use x="224.169922" xlink:href="#DejaVuSans-98"/>
      <use x="287.646484" xlink:href="#DejaVuSans-101"/>
      <use x="349.169922" xlink:href="#DejaVuSans-114"/>
      <use x="390.283203" xlink:href="#DejaVuSans-32"/>
      <use x="422.070312" xlink:href="#DejaVuSans-111"/>
      <use x="483.251953" xlink:href="#DejaVuSans-102"/>
      <use x="518.457031" xlink:href="#DejaVuSans-32"/>
      <use x="550.244141" xlink:href="#DejaVuSans-97"/>
      <use x="611.523438" xlink:href="#DejaVuSans-114"/>
      <use x="650.386719" xlink:href="#DejaVuSans-101"/>
      <use x="711.910156" xlink:href="#DejaVuSans-110"/>
      <use x="775.289062" xlink:href="#DejaVuSans-97"/>
      <use x="836.568359" xlink:href="#DejaVuSans-32"/>
      <use x="868.355469" xlink:href="#DejaVuSans-99"/>
      <use x="923.335938" xlink:href="#DejaVuSans-101"/>
      <use x="984.859375" xlink:href="#DejaVuSans-108"/>
      <use x="1012.642578" xlink:href="#DejaVuSans-108"/>
      <use x="1040.425781" xlink:href="#DejaVuSans-115"/>
     </g>
    </g>
   </g>
   <g id="line2d_31">
    <path clip-path="url(#p2c3d99dcc4)" d="M 73.832727 295.098864 
L 95.476364 290.751774 
L 117.12 265.553638 
L 138.763636 220.646894 
L 160.407273 110.148834 
L 182.050909 290.094196 
L 203.694545 284.667098 
L 225.338182 272.955552 
L 246.981818 218.316238 
L 268.625455 182.09951 
L 290.269091 74.60425 
L 311.912727 289.702979 
L 333.556364 287.719841 
L 355.2 249.028872 
L 376.843636 224.719299 
L 398.487273 53.568 
" style="fill:none;stroke:#ff0000;stroke-linecap:square;stroke-opacity:0.7;stroke-width:1.5;"/>
    <defs>
     <path d="M -3 3 
L 3 3 
L 3 -3 
L -3 -3 
z
" id="m13e0050648" style="stroke:#ff0000;stroke-linejoin:miter;stroke-opacity:0.7;"/>
    </defs>
    <g clip-path="url(#p2c3d99dcc4)">
     <use style="fill:#ff0000;fill-opacity:0.7;stroke:#ff0000;stroke-linejoin:miter;stroke-opacity:0.7;" x="73.832727" xlink:href="#m13e0050648" y="295.098864"/>
     <use style="fill:#ff0000;fill-opacity:0.7;stroke:#ff0000;stroke-linejoin:miter;stroke-opacity:0.7;" x="95.476364" xlink:href="#m13e0050648" y="290.751774"/>
     <use style="fill:#ff0000;fill-opacity:0.7;stroke:#ff0000;stroke-linejoin:miter;stroke-opacity:0.7;" x="117.12" xlink:href="#m13e0050648" y="265.553638"/>
     <use style="fill:#ff0000;fill-opacity:0.7;stroke:#ff0000;stroke-linejoin:miter;stroke-opacity:0.7;" x="138.763636" xlink:href="#m13e0050648" y="220.646894"/>
     <use style="fill:#ff0000;fill-opacity:0.7;stroke:#ff0000;stroke-linejoin:miter;stroke-opacity:0.7;" x="160.407273" xlink:href="#m13e0050648" y="110.148834"/>
     <use style="fill:#ff0000;fill-opacity:0.7;stroke:#ff0000;stroke-linejoin:miter;stroke-opacity:0.7;" x="182.050909" xlink:href="#m13e0050648" y="290.094196"/>
     <use style="fill:#ff0000;fill-opacity:0.7;stroke:#ff0000;stroke-linejoin:miter;stroke-opacity:0.7;" x="203.694545" xlink:href="#m13e0050648" y="284.667098"/>
     <use style="fill:#ff0000;fill-opacity:0.7;stroke:#ff0000;stroke-linejoin:miter;stroke-opacity:0.7;" x="225.338182" xlink:href="#m13e0050648" y="272.955552"/>
     <use style="fill:#ff0000;fill-opacity:0.7;stroke:#ff0000;stroke-linejoin:miter;stroke-opacity:0.7;" x="246.981818" xlink:href="#m13e0050648" y="218.316238"/>
     <use style="fill:#ff0000;fill-opacity:0.7;stroke:#ff0000;stroke-linejoin:miter;stroke-opacity:0.7;" x="268.625455" xlink:href="#m13e0050648" y="182.09951"/>
     <use style="fill:#ff0000;fill-opacity:0.7;stroke:#ff0000;stroke-linejoin:miter;stroke-opacity:0.7;" x="290.269091" xlink:href="#m13e0050648" y="74.60425"/>
     <use style="fill:#ff0000;fill-opacity:0.7;stroke:#ff0000;stroke-linejoin:miter;stroke-opacity:0.7;" x="311.912727" xlink:href="#m13e0050648" y="289.702979"/>
     <use style="fill:#ff0000;fill-opacity:0.7;stroke:#ff0000;stroke-linejoin:miter;stroke-opacity:0.7;" x="333.556364" xlink:href="#m13e0050648" y="287.719841"/>
     <use style="fill:#ff0000;fill-opacity:0.7;stroke:#ff0000;stroke-linejoin:miter;stroke-opacity:0.7;" x="355.2" xlink:href="#m13e0050648" y="249.028872"/>
     <use style="fill:#ff0000;fill-opacity:0.7;stroke:#ff0000;stroke-linejoin:miter;stroke-opacity:0.7;" x="376.843636" xlink:href="#m13e0050648" y="224.719299"/>
     <use style="fill:#ff0000;fill-opacity:0.7;stroke:#ff0000;stroke-linejoin:miter;stroke-opacity:0.7;" x="398.487273" xlink:href="#m13e0050648" y="53.568"/>
    </g>
   </g>
   <g id="line2d_32">
    <path clip-path="url(#p2c3d99dcc4)" d="M 73.832727 295.467191 
L 95.476364 292.241729 
L 117.12 273.556944 
L 138.763636 238.719882 
L 160.407273 154.628985 
L 182.050909 293.049135 
L 203.694545 291.244958 
L 225.338182 287.1892 
L 246.981818 266.048903 
L 268.625455 254.406028 
L 290.269091 215.330085 
L 311.912727 290.387609 
L 333.556364 289.407485 
L 355.2 257.841665 
L 376.843636 234.098108 
L 398.487273 143.271199 
" style="fill:none;stroke:#0000ff;stroke-linecap:square;stroke-opacity:0.7;stroke-width:1.5;"/>
    <defs>
     <path d="M 0 3 
C 0.795609 3 1.55874 2.683901 2.12132 2.12132 
C 2.683901 1.55874 3 0.795609 3 0 
C 3 -0.795609 2.683901 -1.55874 2.12132 -2.12132 
C 1.55874 -2.683901 0.795609 -3 0 -3 
C -0.795609 -3 -1.55874 -2.683901 -2.12132 -2.12132 
C -2.683901 -1.55874 -3 -0.795609 -3 0 
C -3 0.795609 -2.683901 1.55874 -2.12132 2.12132 
C -1.55874 2.683901 -0.795609 3 0 3 
z
" id="m4546259e1f" style="stroke:#0000ff;stroke-opacity:0.7;"/>
    </defs>
    <g clip-path="url(#p2c3d99dcc4)">
     <use style="fill:#0000ff;fill-opacity:0.7;stroke:#0000ff;stroke-opacity:0.7;" x="73.832727" xlink:href="#m4546259e1f" y="295.467191"/>
     <use style="fill:#0000ff;fill-opacity:0.7;stroke:#0000ff;stroke-opacity:0.7;" x="95.476364" xlink:href="#m4546259e1f" y="292.241729"/>
     <use style="fill:#0000ff;fill-opacity:0.7;stroke:#0000ff;stroke-opacity:0.7;" x="117.12" xlink:href="#m4546259e1f" y="273.556944"/>
     <use style="fill:#0000ff;fill-opacity:0.7;stroke:#0000ff;stroke-opacity:0.7;" x="138.763636" xlink:href="#m4546259e1f" y="238.719882"/>
     <use style="fill:#0000ff;fill-opacity:0.7;stroke:#0000ff;stroke-opacity:0.7;" x="160.407273" xlink:href="#m4546259e1f" y="154.628985"/>
     <use style="fill:#0000ff;fill-opacity:0.7;stroke:#0000ff;stroke-opacity:0.7;" x="182.050909" xlink:href="#m4546259e1f" y="293.049135"/>
     <use style="fill:#0000ff;fill-opacity:0.7;stroke:#0000ff;stroke-opacity:0.7;" x="203.694545" xlink:href="#m4546259e1f" y="291.244958"/>
     <use style="fill:#0000ff;fill-opacity:0.7;stroke:#0000ff;stroke-opacity:0.7;" x="225.338182" xlink:href="#m4546259e1f" y="287.1892"/>
     <use style="fill:#0000ff;fill-opacity:0.7;stroke:#0000ff;stroke-opacity:0.7;" x="246.981818" xlink:href="#m4546259e1f" y="266.048903"/>
     <use style="fill:#0000ff;fill-opacity:0.7;stroke:#0000ff;stroke-opacity:0.7;" x="268.625455" xlink:href="#m4546259e1f" y="254.406028"/>
     <use style="fill:#0000ff;fill-opacity:0.7;stroke:#0000ff;stroke-opacity:0.7;" x="290.269091" xlink:href="#m4546259e1f" y="215.330085"/>
     <use style="fill:#0000ff;fill-opacity:0.7;stroke:#0000ff;stroke-opacity:0.7;" x="311.912727" xlink:href="#m4546259e1f" y="290.387609"/>
     <use style="fill:#0000ff;fill-opacity:0.7;stroke:#0000ff;stroke-opacity:0.7;" x="333.556364" xlink:href="#m4546259e1f" y="289.407485"/>
     <use style="fill:#0000ff;fill-opacity:0.7;stroke:#0000ff;stroke-opacity:0.7;" x="355.2" xlink:href="#m4546259e1f" y="257.841665"/>
     <use style="fill:#0000ff;fill-opacity:0.7;stroke:#0000ff;stroke-opacity:0.7;" x="376.843636" xlink:href="#m4546259e1f" y="234.098108"/>
     <use style="fill:#0000ff;fill-opacity:0.7;stroke:#0000ff;stroke-opacity:0.7;" x="398.487273" xlink:href="#m4546259e1f" y="143.271199"/>
    </g>
   </g>
   <g id="line2d_33">
    <path clip-path="url(#p2c3d99dcc4)" d="M 73.832727 295.488 
L 95.476364 292.241729 
L 117.12 273.606887 
L 138.763636 239.791567 
L 160.407273 156.037783 
L 182.050909 293.14902 
L 203.694545 291.355248 
L 225.338182 287.191281 
L 246.981818 266.050984 
L 268.625455 254.462214 
L 290.269091 215.388351 
L 311.912727 290.668537 
L 333.556364 289.482399 
L 355.2 263.757785 
L 376.843636 244.423746 
L 398.487273 145.112834 
" style="fill:none;stroke:#008000;stroke-linecap:square;stroke-opacity:0.7;stroke-width:1.5;"/>
    <defs>
     <path d="M 0 -3 
L -3 3 
L 3 3 
z
" id="m65ae9a97b3" style="stroke:#008000;stroke-linejoin:miter;stroke-opacity:0.7;"/>
    </defs>
    <g clip-path="url(#p2c3d99dcc4)">
     <use style="fill:#008000;fill-opacity:0.7;stroke:#008000;stroke-linejoin:miter;stroke-opacity:0.7;" x="73.832727" xlink:href="#m65ae9a97b3" y="295.488"/>
     <use style="fill:#008000;fill-opacity:0.7;stroke:#008000;stroke-linejoin:miter;stroke-opacity:0.7;" x="95.476364" xlink:href="#m65ae9a97b3" y="292.241729"/>
     <use style="fill:#008000;fill-opacity:0.7;stroke:#008000;stroke-linejoin:miter;stroke-opacity:0.7;" x="117.12" xlink:href="#m65ae9a97b3" y="273.606887"/>
     <use style="fill:#008000;fill-opacity:0.7;stroke:#008000;stroke-linejoin:miter;stroke-opacity:0.7;" x="138.763636" xlink:href="#m65ae9a97b3" y="239.791567"/>
     <use style="fill:#008000;fill-opacity:0.7;stroke:#008000;stroke-linejoin:miter;stroke-opacity:0.7;" x="160.407273" xlink:href="#m65ae9a97b3" y="156.037783"/>
     <use style="fill:#008000;fill-opacity:0.7;stroke:#008000;stroke-linejoin:miter;stroke-opacity:0.7;" x="182.050909" xlink:href="#m65ae9a97b3" y="293.14902"/>
     <use style="fill:#008000;fill-opacity:0.7;stroke:#008000;stroke-linejoin:miter;stroke-opacity:0.7;" x="203.694545" xlink:href="#m65ae9a97b3" y="291.355248"/>
     <use style="fill:#008000;fill-opacity:0.7;stroke:#008000;stroke-linejoin:miter;stroke-opacity:0.7;" x="225.338182" xlink:href="#m65ae9a97b3" y="287.191281"/>
     <use style="fill:#008000;fill-opacity:0.7;stroke:#008000;stroke-linejoin:miter;stroke-opacity:0.7;" x="246.981818" xlink:href="#m65ae9a97b3" y="266.050984"/>
     <use style="fill:#008000;fill-opacity:0.7;stroke:#008000;stroke-linejoin:miter;stroke-opacity:0.7;" x="268.625455" xlink:href="#m65ae9a97b3" y="254.462214"/>
     <use style="fill:#008000;fill-opacity:0.7;stroke:#008000;stroke-linejoin:miter;stroke-opacity:0.7;" x="290.269091" xlink:href="#m65ae9a97b3" y="215.388351"/>
     <use style="fill:#008000;fill-opacity:0.7;stroke:#008000;stroke-linejoin:miter;stroke-opacity:0.7;" x="311.912727" xlink:href="#m65ae9a97b3" y="290.668537"/>
     <use style="fill:#008000;fill-opacity:0.7;stroke:#008000;stroke-linejoin:miter;stroke-opacity:0.7;" x="333.556364" xlink:href="#m65ae9a97b3" y="289.482399"/>
     <use style="fill:#008000;fill-opacity:0.7;stroke:#008000;stroke-linejoin:miter;stroke-opacity:0.7;" x="355.2" xlink:href="#m65ae9a97b3" y="263.757785"/>
     <use style="fill:#008000;fill-opacity:0.7;stroke:#008000;stroke-linejoin:miter;stroke-opacity:0.7;" x="376.843636" xlink:href="#m65ae9a97b3" y="244.423746"/>
     <use style="fill:#008000;fill-opacity:0.7;stroke:#008000;stroke-linejoin:miter;stroke-opacity:0.7;" x="398.487273" xlink:href="#m65ae9a97b3" y="145.112834"/>
    </g>
   </g>
   <g id="line2d_34">
    <path clip-path="url(#p2c3d99dcc4)" d="M 73.832727 295.071811 
L 95.476364 289.59477 
L 117.12 268.325454 
L 138.763636 222.985873 
L 160.407273 116.158596 
L 182.050909 291.475942 
L 203.694545 288.294181 
L 225.338182 280.012029 
L 246.981818 239.645901 
L 268.625455 214.106491 
L 290.269091 139.735678 
L 311.912727 289.415809 
L 333.556364 287.376485 
L 355.2 257.417152 
L 376.843636 236.270612 
L 398.487273 152.745732 
" style="fill:none;stroke:#bf00bf;stroke-linecap:square;stroke-opacity:0.7;stroke-width:1.5;"/>
    <defs>
     <path d="M -0 3 
L 3 -3 
L -3 -3 
z
" id="m14540effef" style="stroke:#bf00bf;stroke-linejoin:miter;stroke-opacity:0.7;"/>
    </defs>
    <g clip-path="url(#p2c3d99dcc4)">
     <use style="fill:#bf00bf;fill-opacity:0.7;stroke:#bf00bf;stroke-linejoin:miter;stroke-opacity:0.7;" x="73.832727" xlink:href="#m14540effef" y="295.071811"/>
     <use style="fill:#bf00bf;fill-opacity:0.7;stroke:#bf00bf;stroke-linejoin:miter;stroke-opacity:0.7;" x="95.476364" xlink:href="#m14540effef" y="289.59477"/>
     <use style="fill:#bf00bf;fill-opacity:0.7;stroke:#bf00bf;stroke-linejoin:miter;stroke-opacity:0.7;" x="117.12" xlink:href="#m14540effef" y="268.325454"/>
     <use style="fill:#bf00bf;fill-opacity:0.7;stroke:#bf00bf;stroke-linejoin:miter;stroke-opacity:0.7;" x="138.763636" xlink:href="#m14540effef" y="222.985873"/>
     <use style="fill:#bf00bf;fill-opacity:0.7;stroke:#bf00bf;stroke-linejoin:miter;stroke-opacity:0.7;" x="160.407273" xlink:href="#m14540effef" y="116.158596"/>
     <use style="fill:#bf00bf;fill-opacity:0.7;stroke:#bf00bf;stroke-linejoin:miter;stroke-opacity:0.7;" x="182.050909" xlink:href="#m14540effef" y="291.475942"/>
     <use style="fill:#bf00bf;fill-opacity:0.7;stroke:#bf00bf;stroke-linejoin:miter;stroke-opacity:0.7;" x="203.694545" xlink:href="#m14540effef" y="288.294181"/>
     <use style="fill:#bf00bf;fill-opacity:0.7;stroke:#bf00bf;stroke-linejoin:miter;stroke-opacity:0.7;" x="225.338182" xlink:href="#m14540effef" y="280.012029"/>
     <use style="fill:#bf00bf;fill-opacity:0.7;stroke:#bf00bf;stroke-linejoin:miter;stroke-opacity:0.7;" x="246.981818" xlink:href="#m14540effef" y="239.645901"/>
     <use style="fill:#bf00bf;fill-opacity:0.7;stroke:#bf00bf;stroke-linejoin:miter;stroke-opacity:0.7;" x="268.625455" xlink:href="#m14540effef" y="214.106491"/>
     <use style="fill:#bf00bf;fill-opacity:0.7;stroke:#bf00bf;stroke-linejoin:miter;stroke-opacity:0.7;" x="290.269091" xlink:href="#m14540effef" y="139.735678"/>
     <use style="fill:#bf00bf;fill-opacity:0.7;stroke:#bf00bf;stroke-linejoin:miter;stroke-opacity:0.7;" x="311.912727" xlink:href="#m14540effef" y="289.415809"/>
     <use style="fill:#bf00bf;fill-opacity:0.7;stroke:#bf00bf;stroke-linejoin:miter;stroke-opacity:0.7;" x="333.556364" xlink:href="#m14540effef" y="287.376485"/>
     <use style="fill:#bf00bf;fill-opacity:0.7;stroke:#bf00bf;stroke-linejoin:miter;stroke-opacity:0.7;" x="355.2" xlink:href="#m14540effef" y="257.417152"/>
     <use style="fill:#bf00bf;fill-opacity:0.7;stroke:#bf00bf;stroke-linejoin:miter;stroke-opacity:0.7;" x="376.843636" xlink:href="#m14540effef" y="236.270612"/>
     <use style="fill:#bf00bf;fill-opacity:0.7;stroke:#bf00bf;stroke-linejoin:miter;stroke-opacity:0.7;" x="398.487273" xlink:href="#m14540effef" y="152.745732"/>
    </g>
   </g>
   <g id="line2d_35">
    <path clip-path="url(#p2c3d99dcc4)" d="M 73.832727 295.071811 
L 95.476364 289.59477 
L 117.12 268.325454 
L 138.763636 239.096532 
L 160.407273 155.94206 
L 182.050909 291.475942 
L 203.694545 288.294181 
L 225.338182 280.012029 
L 246.981818 239.645901 
L 268.625455 214.106491 
L 290.269091 139.735678 
L 311.912727 289.415809 
L 333.556364 287.376485 
L 355.2 257.402586 
L 376.843636 236.270612 
L 398.487273 152.745732 
" style="fill:none;stroke:#000000;stroke-linecap:square;stroke-opacity:0.7;stroke-width:1.5;"/>
    <defs>
     <path d="M -0 4.242641 
L 4.242641 0 
L 0 -4.242641 
L -4.242641 -0 
z
" id="m659ffba779" style="stroke:#000000;stroke-linejoin:miter;stroke-opacity:0.7;"/>
    </defs>
    <g clip-path="url(#p2c3d99dcc4)">
     <use style="fill-opacity:0.7;stroke:#000000;stroke-linejoin:miter;stroke-opacity:0.7;" x="73.832727" xlink:href="#m659ffba779" y="295.071811"/>
     <use style="fill-opacity:0.7;stroke:#000000;stroke-linejoin:miter;stroke-opacity:0.7;" x="95.476364" xlink:href="#m659ffba779" y="289.59477"/>
     <use style="fill-opacity:0.7;stroke:#000000;stroke-linejoin:miter;stroke-opacity:0.7;" x="117.12" xlink:href="#m659ffba779" y="268.325454"/>
     <use style="fill-opacity:0.7;stroke:#000000;stroke-linejoin:miter;stroke-opacity:0.7;" x="138.763636" xlink:href="#m659ffba779" y="239.096532"/>
     <use style="fill-opacity:0.7;stroke:#000000;stroke-linejoin:miter;stroke-opacity:0.7;" x="160.407273" xlink:href="#m659ffba779" y="155.94206"/>
     <use style="fill-opacity:0.7;stroke:#000000;stroke-linejoin:miter;stroke-opacity:0.7;" x="182.050909" xlink:href="#m659ffba779" y="291.475942"/>
     <use style="fill-opacity:0.7;stroke:#000000;stroke-linejoin:miter;stroke-opacity:0.7;" x="203.694545" xlink:href="#m659ffba779" y="288.294181"/>
     <use style="fill-opacity:0.7;stroke:#000000;stroke-linejoin:miter;stroke-opacity:0.7;" x="225.338182" xlink:href="#m659ffba779" y="280.012029"/>
     <use style="fill-opacity:0.7;stroke:#000000;stroke-linejoin:miter;stroke-opacity:0.7;" x="246.981818" xlink:href="#m659ffba779" y="239.645901"/>
     <use style="fill-opacity:0.7;stroke:#000000;stroke-linejoin:miter;stroke-opacity:0.7;" x="268.625455" xlink:href="#m659ffba779" y="214.106491"/>
     <use style="fill-opacity:0.7;stroke:#000000;stroke-linejoin:miter;stroke-opacity:0.7;" x="290.269091" xlink:href="#m659ffba779" y="139.735678"/>
     <use style="fill-opacity:0.7;stroke:#000000;stroke-linejoin:miter;stroke-opacity:0.7;" x="311.912727" xlink:href="#m659ffba779" y="289.415809"/>
     <use style="fill-opacity:0.7;stroke:#000000;stroke-linejoin:miter;stroke-opacity:0.7;" x="333.556364" xlink:href="#m659ffba779" y="287.376485"/>
     <use style="fill-opacity:0.7;stroke:#000000;stroke-linejoin:miter;stroke-opacity:0.7;" x="355.2" xlink:href="#m659ffba779" y="257.402586"/>
     <use style="fill-opacity:0.7;stroke:#000000;stroke-linejoin:miter;stroke-opacity:0.7;" x="376.843636" xlink:href="#m659ffba779" y="236.270612"/>
     <use style="fill-opacity:0.7;stroke:#000000;stroke-linejoin:miter;stroke-opacity:0.7;" x="398.487273" xlink:href="#m659ffba779" y="152.745732"/>
    </g>
   </g>
   <g id="line2d_36">
    <path clip-path="url(#p2c3d99dcc4)" d="M 73.832727 295.458867 
L 95.476364 292.22092 
L 117.12 273.471626 
L 138.763636 238.719882 
L 160.407273 154.628985 
L 182.050909 293.049135 
L 203.694545 291.244958 
L 225.338182 287.1892 
L 246.981818 266.048903 
L 268.625455 254.368571 
L 290.269091 215.294709 
L 311.912727 290.529113 
L 333.556364 289.482399 
L 355.2 257.841665 
L 376.843636 234.098108 
L 398.487273 142.376394 
" style="fill:none;stroke:#00bfbf;stroke-linecap:square;stroke-opacity:0.7;stroke-width:1.5;"/>
    <defs>
     <path d="M -3 -0 
L 3 3 
L 3 -3 
z
" id="m18dac5582b" style="stroke:#00bfbf;stroke-linejoin:miter;stroke-opacity:0.7;"/>
    </defs>
    <g clip-path="url(#p2c3d99dcc4)">
     <use style="fill:#00bfbf;fill-opacity:0.7;stroke:#00bfbf;stroke-linejoin:miter;stroke-opacity:0.7;" x="73.832727" xlink:href="#m18dac5582b" y="295.458867"/>
     <use style="fill:#00bfbf;fill-opacity:0.7;stroke:#00bfbf;stroke-linejoin:miter;stroke-opacity:0.7;" x="95.476364" xlink:href="#m18dac5582b" y="292.22092"/>
     <use style="fill:#00bfbf;fill-opacity:0.7;stroke:#00bfbf;stroke-linejoin:miter;stroke-opacity:0.7;" x="117.12" xlink:href="#m18dac5582b" y="273.471626"/>
     <use style="fill:#00bfbf;fill-opacity:0.7;stroke:#00bfbf;stroke-linejoin:miter;stroke-opacity:0.7;" x="138.763636" xlink:href="#m18dac5582b" y="238.719882"/>
     <use style="fill:#00bfbf;fill-opacity:0.7;stroke:#00bfbf;stroke-linejoin:miter;stroke-opacity:0.7;" x="160.407273" xlink:href="#m18dac5582b" y="154.628985"/>
     <use style="fill:#00bfbf;fill-opacity:0.7;stroke:#00bfbf;stroke-linejoin:miter;stroke-opacity:0.7;" x="182.050909" xlink:href="#m18dac5582b" y="293.049135"/>
     <use style="fill:#00bfbf;fill-opacity:0.7;stroke:#00bfbf;stroke-linejoin:miter;stroke-opacity:0.7;" x="203.694545" xlink:href="#m18dac5582b" y="291.244958"/>
     <use style="fill:#00bfbf;fill-opacity:0.7;stroke:#00bfbf;stroke-linejoin:miter;stroke-opacity:0.7;" x="225.338182" xlink:href="#m18dac5582b" y="287.1892"/>
     <use style="fill:#00bfbf;fill-opacity:0.7;stroke:#00bfbf;stroke-linejoin:miter;stroke-opacity:0.7;" x="246.981818" xlink:href="#m18dac5582b" y="266.048903"/>
     <use style="fill:#00bfbf;fill-opacity:0.7;stroke:#00bfbf;stroke-linejoin:miter;stroke-opacity:0.7;" x="268.625455" xlink:href="#m18dac5582b" y="254.368571"/>
     <use style="fill:#00bfbf;fill-opacity:0.7;stroke:#00bfbf;stroke-linejoin:miter;stroke-opacity:0.7;" x="290.269091" xlink:href="#m18dac5582b" y="215.294709"/>
     <use style="fill:#00bfbf;fill-opacity:0.7;stroke:#00bfbf;stroke-linejoin:miter;stroke-opacity:0.7;" x="311.912727" xlink:href="#m18dac5582b" y="290.529113"/>
     <use style="fill:#00bfbf;fill-opacity:0.7;stroke:#00bfbf;stroke-linejoin:miter;stroke-opacity:0.7;" x="333.556364" xlink:href="#m18dac5582b" y="289.482399"/>
     <use style="fill:#00bfbf;fill-opacity:0.7;stroke:#00bfbf;stroke-linejoin:miter;stroke-opacity:0.7;" x="355.2" xlink:href="#m18dac5582b" y="257.841665"/>
     <use style="fill:#00bfbf;fill-opacity:0.7;stroke:#00bfbf;stroke-linejoin:miter;stroke-opacity:0.7;" x="376.843636" xlink:href="#m18dac5582b" y="234.098108"/>
     <use style="fill:#00bfbf;fill-opacity:0.7;stroke:#00bfbf;stroke-linejoin:miter;stroke-opacity:0.7;" x="398.487273" xlink:href="#m18dac5582b" y="142.376394"/>
    </g>
   </g>
   <g id="patch_3">
    <path d="M 57.6 307.584 
L 57.6 41.472 
" style="fill:none;stroke:#000000;stroke-linecap:square;stroke-linejoin:miter;stroke-width:0.8;"/>
   </g>
   <g id="patch_4">
    <path d="M 414.72 307.584 
L 414.72 41.472 
" style="fill:none;stroke:#000000;stroke-linecap:square;stroke-linejoin:miter;stroke-width:0.8;"/>
   </g>
   <g id="patch_5">
    <path d="M 57.6 307.584 
L 414.72 307.584 
" style="fill:none;stroke:#000000;stroke-linecap:square;stroke-linejoin:miter;stroke-width:0.8;"/>
   </g>
   <g id="patch_6">
    <path d="M 57.6 41.472 
L 414.72 41.472 
" style="fill:none;stroke:#000000;stroke-linecap:square;stroke-linejoin:miter;stroke-width:0.8;"/>
   </g>
   <g id="legend_1">
    <g id="patch_7">
     <path d="M 192.366875 137.54075 
L 407.72 137.54075 
Q 409.72 137.54075 409.72 135.54075 
L 409.72 48.472 
Q 409.72 46.472 407.72 46.472 
L 192.366875 46.472 
Q 190.366875 46.472 190.366875 48.472 
L 190.366875 135.54075 
Q 190.366875 137.54075 192.366875 137.54075 
z
" style="fill:#ffffff;opacity:0.8;stroke:#cccccc;stroke-linejoin:miter;"/>
    </g>
    <g id="line2d_37">
     <path d="M 194.366875 54.570438 
L 214.366875 54.570438 
" style="fill:none;stroke:#ff0000;stroke-linecap:square;stroke-opacity:0.7;stroke-width:1.5;"/>
    </g>
    <g id="line2d_38">
     <g>
      <use style="fill:#ff0000;fill-opacity:0.7;stroke:#ff0000;stroke-linejoin:miter;stroke-opacity:0.7;" x="204.366875" xlink:href="#m13e0050648" y="54.570438"/>
     </g>
    </g>
    <g id="text_18">
     <!-- 002bmc-apalache-0.5.2 -->
     <g transform="translate(222.366875 58.070438)scale(0.1 -0.1)">
      <defs>
       <path d="M 4.890625 31.390625 
L 31.203125 31.390625 
L 31.203125 23.390625 
L 4.890625 23.390625 
z
" id="DejaVuSans-45"/>
       <path d="M 18.109375 8.203125 
L 18.109375 -20.796875 
L 9.078125 -20.796875 
L 9.078125 54.6875 
L 18.109375 54.6875 
L 18.109375 46.390625 
Q 20.953125 51.265625 25.265625 53.625 
Q 29.59375 56 35.59375 56 
Q 45.5625 56 51.78125 48.09375 
Q 58.015625 40.1875 58.015625 27.296875 
Q 58.015625 14.40625 51.78125 6.484375 
Q 45.5625 -1.421875 35.59375 -1.421875 
Q 29.59375 -1.421875 25.265625 0.953125 
Q 20.953125 3.328125 18.109375 8.203125 
z
M 48.6875 27.296875 
Q 48.6875 37.203125 44.609375 42.84375 
Q 40.53125 48.484375 33.40625 48.484375 
Q 26.265625 48.484375 22.1875 42.84375 
Q 18.109375 37.203125 18.109375 27.296875 
Q 18.109375 17.390625 22.1875 11.75 
Q 26.265625 6.109375 33.40625 6.109375 
Q 40.53125 6.109375 44.609375 11.75 
Q 48.6875 17.390625 48.6875 27.296875 
z
" id="DejaVuSans-112"/>
       <path d="M 10.6875 12.40625 
L 21 12.40625 
L 21 0 
L 10.6875 0 
z
" id="DejaVuSans-46"/>
       <path d="M 10.796875 72.90625 
L 49.515625 72.90625 
L 49.515625 64.59375 
L 19.828125 64.59375 
L 19.828125 46.734375 
Q 21.96875 47.46875 24.109375 47.828125 
Q 26.265625 48.1875 28.421875 48.1875 
Q 40.625 48.1875 47.75 41.5 
Q 54.890625 34.8125 54.890625 23.390625 
Q 54.890625 11.625 47.5625 5.09375 
Q 40.234375 -1.421875 26.90625 -1.421875 
Q 22.3125 -1.421875 17.546875 -0.640625 
Q 12.796875 0.140625 7.71875 1.703125 
L 7.71875 11.625 
Q 12.109375 9.234375 16.796875 8.0625 
Q 21.484375 6.890625 26.703125 6.890625 
Q 35.15625 6.890625 40.078125 11.328125 
Q 45.015625 15.765625 45.015625 23.390625 
Q 45.015625 31 40.078125 35.4375 
Q 35.15625 39.890625 26.703125 39.890625 
Q 22.75 39.890625 18.8125 39.015625 
Q 14.890625 38.140625 10.796875 36.28125 
z
" id="DejaVuSans-53"/>
      </defs>
      <use xlink:href="#DejaVuSans-48"/>
      <use x="63.623047" xlink:href="#DejaVuSans-48"/>
      <use x="127.246094" xlink:href="#DejaVuSans-50"/>
      <use x="190.869141" xlink:href="#DejaVuSans-98"/>
      <use x="254.345703" xlink:href="#DejaVuSans-109"/>
      <use x="351.757812" xlink:href="#DejaVuSans-99"/>
      <use x="406.738281" xlink:href="#DejaVuSans-45"/>
      <use x="442.822266" xlink:href="#DejaVuSans-97"/>
      <use x="504.101562" xlink:href="#DejaVuSans-112"/>
      <use x="567.578125" xlink:href="#DejaVuSans-97"/>
      <use x="628.857422" xlink:href="#DejaVuSans-108"/>
      <use x="656.640625" xlink:href="#DejaVuSans-97"/>
      <use x="717.919922" xlink:href="#DejaVuSans-99"/>
      <use x="772.900391" xlink:href="#DejaVuSans-104"/>
      <use x="836.279297" xlink:href="#DejaVuSans-101"/>
      <use x="897.802734" xlink:href="#DejaVuSans-45"/>
      <use x="933.886719" xlink:href="#DejaVuSans-48"/>
      <use x="997.509766" xlink:href="#DejaVuSans-46"/>
      <use x="1029.296875" xlink:href="#DejaVuSans-53"/>
      <use x="1092.919922" xlink:href="#DejaVuSans-46"/>
      <use x="1124.707031" xlink:href="#DejaVuSans-50"/>
     </g>
    </g>
    <g id="line2d_39">
     <path d="M 194.366875 69.248563 
L 214.366875 69.248563 
" style="fill:none;stroke:#0000ff;stroke-linecap:square;stroke-opacity:0.7;stroke-width:1.5;"/>
    </g>
    <g id="line2d_40">
     <g>
      <use style="fill:#0000ff;fill-opacity:0.7;stroke:#0000ff;stroke-opacity:0.7;" x="204.366875" xlink:href="#m4546259e1f" y="69.248563"/>
     </g>
    </g>
    <g id="text_19">
     <!-- 002bmc-apalache-0.16.0 -->
     <g transform="translate(222.366875 72.748563)scale(0.1 -0.1)">
      <use xlink:href="#DejaVuSans-48"/>
      <use x="63.623047" xlink:href="#DejaVuSans-48"/>
      <use x="127.246094" xlink:href="#DejaVuSans-50"/>
      <use x="190.869141" xlink:href="#DejaVuSans-98"/>
      <use x="254.345703" xlink:href="#DejaVuSans-109"/>
      <use x="351.757812" xlink:href="#DejaVuSans-99"/>
      <use x="406.738281" xlink:href="#DejaVuSans-45"/>
      <use x="442.822266" xlink:href="#DejaVuSans-97"/>
      <use x="504.101562" xlink:href="#DejaVuSans-112"/>
      <use x="567.578125" xlink:href="#DejaVuSans-97"/>
      <use x="628.857422" xlink:href="#DejaVuSans-108"/>
      <use x="656.640625" xlink:href="#DejaVuSans-97"/>
      <use x="717.919922" xlink:href="#DejaVuSans-99"/>
      <use x="772.900391" xlink:href="#DejaVuSans-104"/>
      <use x="836.279297" xlink:href="#DejaVuSans-101"/>
      <use x="897.802734" xlink:href="#DejaVuSans-45"/>
      <use x="933.886719" xlink:href="#DejaVuSans-48"/>
      <use x="997.509766" xlink:href="#DejaVuSans-46"/>
      <use x="1029.296875" xlink:href="#DejaVuSans-49"/>
      <use x="1092.919922" xlink:href="#DejaVuSans-54"/>
      <use x="1156.542969" xlink:href="#DejaVuSans-46"/>
      <use x="1188.330078" xlink:href="#DejaVuSans-48"/>
     </g>
    </g>
    <g id="line2d_41">
     <path d="M 194.366875 83.926688 
L 214.366875 83.926688 
" style="fill:none;stroke:#008000;stroke-linecap:square;stroke-opacity:0.7;stroke-width:1.5;"/>
    </g>
    <g id="line2d_42">
     <g>
      <use style="fill:#008000;fill-opacity:0.7;stroke:#008000;stroke-linejoin:miter;stroke-opacity:0.7;" x="204.366875" xlink:href="#m65ae9a97b3" y="83.926688"/>
     </g>
    </g>
    <g id="text_20">
     <!-- 002bmc-apalache-0.9.0 -->
     <g transform="translate(222.366875 87.426688)scale(0.1 -0.1)">
      <defs>
       <path d="M 10.984375 1.515625 
L 10.984375 10.5 
Q 14.703125 8.734375 18.5 7.8125 
Q 22.3125 6.890625 25.984375 6.890625 
Q 35.75 6.890625 40.890625 13.453125 
Q 46.046875 20.015625 46.78125 33.40625 
Q 43.953125 29.203125 39.59375 26.953125 
Q 35.25 24.703125 29.984375 24.703125 
Q 19.046875 24.703125 12.671875 31.3125 
Q 6.296875 37.9375 6.296875 49.421875 
Q 6.296875 60.640625 12.9375 67.421875 
Q 19.578125 74.21875 30.609375 74.21875 
Q 43.265625 74.21875 49.921875 64.515625 
Q 56.59375 54.828125 56.59375 36.375 
Q 56.59375 19.140625 48.40625 8.859375 
Q 40.234375 -1.421875 26.421875 -1.421875 
Q 22.703125 -1.421875 18.890625 -0.6875 
Q 15.09375 0.046875 10.984375 1.515625 
z
M 30.609375 32.421875 
Q 37.25 32.421875 41.125 36.953125 
Q 45.015625 41.5 45.015625 49.421875 
Q 45.015625 57.28125 41.125 61.84375 
Q 37.25 66.40625 30.609375 66.40625 
Q 23.96875 66.40625 20.09375 61.84375 
Q 16.21875 57.28125 16.21875 49.421875 
Q 16.21875 41.5 20.09375 36.953125 
Q 23.96875 32.421875 30.609375 32.421875 
z
" id="DejaVuSans-57"/>
      </defs>
      <use xlink:href="#DejaVuSans-48"/>
      <use x="63.623047" xlink:href="#DejaVuSans-48"/>
      <use x="127.246094" xlink:href="#DejaVuSans-50"/>
      <use x="190.869141" xlink:href="#DejaVuSans-98"/>
      <use x="254.345703" xlink:href="#DejaVuSans-109"/>
      <use x="351.757812" xlink:href="#DejaVuSans-99"/>
      <use x="406.738281" xlink:href="#DejaVuSans-45"/>
      <use x="442.822266" xlink:href="#DejaVuSans-97"/>
      <use x="504.101562" xlink:href="#DejaVuSans-112"/>
      <use x="567.578125" xlink:href="#DejaVuSans-97"/>
      <use x="628.857422" xlink:href="#DejaVuSans-108"/>
      <use x="656.640625" xlink:href="#DejaVuSans-97"/>
      <use x="717.919922" xlink:href="#DejaVuSans-99"/>
      <use x="772.900391" xlink:href="#DejaVuSans-104"/>
      <use x="836.279297" xlink:href="#DejaVuSans-101"/>
      <use x="897.802734" xlink:href="#DejaVuSans-45"/>
      <use x="933.886719" xlink:href="#DejaVuSans-48"/>
      <use x="997.509766" xlink:href="#DejaVuSans-46"/>
      <use x="1029.296875" xlink:href="#DejaVuSans-57"/>
      <use x="1092.919922" xlink:href="#DejaVuSans-46"/>
      <use x="1124.707031" xlink:href="#DejaVuSans-48"/>
     </g>
    </g>
    <g id="line2d_43">
     <path d="M 194.366875 98.604813 
L 214.366875 98.604813 
" style="fill:none;stroke:#bf00bf;stroke-linecap:square;stroke-opacity:0.7;stroke-width:1.5;"/>
    </g>
    <g id="line2d_44">
     <g>
      <use style="fill:#bf00bf;fill-opacity:0.7;stroke:#bf00bf;stroke-linejoin:miter;stroke-opacity:0.7;" x="204.366875" xlink:href="#m14540effef" y="98.604813"/>
     </g>
    </g>
    <g id="text_21">
     <!-- 002bmc-apalache-0.7.0 -->
     <g transform="translate(222.366875 102.104813)scale(0.1 -0.1)">
      <defs>
       <path d="M 8.203125 72.90625 
L 55.078125 72.90625 
L 55.078125 68.703125 
L 28.609375 0 
L 18.3125 0 
L 43.21875 64.59375 
L 8.203125 64.59375 
z
" id="DejaVuSans-55"/>
      </defs>
      <use xlink:href="#DejaVuSans-48"/>
      <use x="63.623047" xlink:href="#DejaVuSans-48"/>
      <use x="127.246094" xlink:href="#DejaVuSans-50"/>
      <use x="190.869141" xlink:href="#DejaVuSans-98"/>
      <use x="254.345703" xlink:href="#DejaVuSans-109"/>
      <use x="351.757812" xlink:href="#DejaVuSans-99"/>
      <use x="406.738281" xlink:href="#DejaVuSans-45"/>
      <use x="442.822266" xlink:href="#DejaVuSans-97"/>
      <use x="504.101562" xlink:href="#DejaVuSans-112"/>
      <use x="567.578125" xlink:href="#DejaVuSans-97"/>
      <use x="628.857422" xlink:href="#DejaVuSans-108"/>
      <use x="656.640625" xlink:href="#DejaVuSans-97"/>
      <use x="717.919922" xlink:href="#DejaVuSans-99"/>
      <use x="772.900391" xlink:href="#DejaVuSans-104"/>
      <use x="836.279297" xlink:href="#DejaVuSans-101"/>
      <use x="897.802734" xlink:href="#DejaVuSans-45"/>
      <use x="933.886719" xlink:href="#DejaVuSans-48"/>
      <use x="997.509766" xlink:href="#DejaVuSans-46"/>
      <use x="1029.296875" xlink:href="#DejaVuSans-55"/>
      <use x="1092.919922" xlink:href="#DejaVuSans-46"/>
      <use x="1124.707031" xlink:href="#DejaVuSans-48"/>
     </g>
    </g>
    <g id="line2d_45">
     <path d="M 194.366875 113.282938 
L 214.366875 113.282938 
" style="fill:none;stroke:#000000;stroke-linecap:square;stroke-opacity:0.7;stroke-width:1.5;"/>
    </g>
    <g id="line2d_46">
     <g>
      <use style="fill-opacity:0.7;stroke:#000000;stroke-linejoin:miter;stroke-opacity:0.7;" x="204.366875" xlink:href="#m659ffba779" y="113.282938"/>
     </g>
    </g>
    <g id="text_22">
     <!-- 002bmc-apalache-0.6.0 -->
     <g transform="translate(222.366875 116.782938)scale(0.1 -0.1)">
      <use xlink:href="#DejaVuSans-48"/>
      <use x="63.623047" xlink:href="#DejaVuSans-48"/>
      <use x="127.246094" xlink:href="#DejaVuSans-50"/>
      <use x="190.869141" xlink:href="#DejaVuSans-98"/>
      <use x="254.345703" xlink:href="#DejaVuSans-109"/>
      <use x="351.757812" xlink:href="#DejaVuSans-99"/>
      <use x="406.738281" xlink:href="#DejaVuSans-45"/>
      <use x="442.822266" xlink:href="#DejaVuSans-97"/>
      <use x="504.101562" xlink:href="#DejaVuSans-112"/>
      <use x="567.578125" xlink:href="#DejaVuSans-97"/>
      <use x="628.857422" xlink:href="#DejaVuSans-108"/>
      <use x="656.640625" xlink:href="#DejaVuSans-97"/>
      <use x="717.919922" xlink:href="#DejaVuSans-99"/>
      <use x="772.900391" xlink:href="#DejaVuSans-104"/>
      <use x="836.279297" xlink:href="#DejaVuSans-101"/>
      <use x="897.802734" xlink:href="#DejaVuSans-45"/>
      <use x="933.886719" xlink:href="#DejaVuSans-48"/>
      <use x="997.509766" xlink:href="#DejaVuSans-46"/>
      <use x="1029.296875" xlink:href="#DejaVuSans-54"/>
      <use x="1092.919922" xlink:href="#DejaVuSans-46"/>
      <use x="1124.707031" xlink:href="#DejaVuSans-48"/>
     </g>
    </g>
    <g id="line2d_47">
     <path d="M 194.366875 127.961063 
L 214.366875 127.961063 
" style="fill:none;stroke:#00bfbf;stroke-linecap:square;stroke-opacity:0.7;stroke-width:1.5;"/>
    </g>
    <g id="line2d_48">
     <g>
      <use style="fill:#00bfbf;fill-opacity:0.7;stroke:#00bfbf;stroke-linejoin:miter;stroke-opacity:0.7;" x="204.366875" xlink:href="#m18dac5582b" y="127.961063"/>
     </g>
    </g>
    <g id="text_23">
     <!-- 002bmc-apalache-0.16.6-SNAPSHOT -->
     <g transform="translate(222.366875 131.461063)scale(0.1 -0.1)">
      <defs>
       <path d="M 53.515625 70.515625 
L 53.515625 60.890625 
Q 47.90625 63.578125 42.921875 64.890625 
Q 37.9375 66.21875 33.296875 66.21875 
Q 25.25 66.21875 20.875 63.09375 
Q 16.5 59.96875 16.5 54.203125 
Q 16.5 49.359375 19.40625 46.890625 
Q 22.3125 44.4375 30.421875 42.921875 
L 36.375 41.703125 
Q 47.40625 39.59375 52.65625 34.296875 
Q 57.90625 29 57.90625 20.125 
Q 57.90625 9.515625 50.796875 4.046875 
Q 43.703125 -1.421875 29.984375 -1.421875 
Q 24.8125 -1.421875 18.96875 -0.25 
Q 13.140625 0.921875 6.890625 3.21875 
L 6.890625 13.375 
Q 12.890625 10.015625 18.65625 8.296875 
Q 24.421875 6.59375 29.984375 6.59375 
Q 38.421875 6.59375 43.015625 9.90625 
Q 47.609375 13.234375 47.609375 19.390625 
Q 47.609375 24.75 44.3125 27.78125 
Q 41.015625 30.8125 33.5 32.328125 
L 27.484375 33.5 
Q 16.453125 35.6875 11.515625 40.375 
Q 6.59375 45.0625 6.59375 53.421875 
Q 6.59375 63.09375 13.40625 68.65625 
Q 20.21875 74.21875 32.171875 74.21875 
Q 37.3125 74.21875 42.625 73.28125 
Q 47.953125 72.359375 53.515625 70.515625 
z
" id="DejaVuSans-83"/>
       <path d="M 9.8125 72.90625 
L 23.09375 72.90625 
L 55.421875 11.921875 
L 55.421875 72.90625 
L 64.984375 72.90625 
L 64.984375 0 
L 51.703125 0 
L 19.390625 60.984375 
L 19.390625 0 
L 9.8125 0 
z
" id="DejaVuSans-78"/>
       <path d="M 34.1875 63.1875 
L 20.796875 26.90625 
L 47.609375 26.90625 
z
M 28.609375 72.90625 
L 39.796875 72.90625 
L 67.578125 0 
L 57.328125 0 
L 50.6875 18.703125 
L 17.828125 18.703125 
L 11.1875 0 
L 0.78125 0 
z
" id="DejaVuSans-65"/>
       <path d="M 19.671875 64.796875 
L 19.671875 37.40625 
L 32.078125 37.40625 
Q 38.96875 37.40625 42.71875 40.96875 
Q 46.484375 44.53125 46.484375 51.125 
Q 46.484375 57.671875 42.71875 61.234375 
Q 38.96875 64.796875 32.078125 64.796875 
z
M 9.8125 72.90625 
L 32.078125 72.90625 
Q 44.34375 72.90625 50.609375 67.359375 
Q 56.890625 61.8125 56.890625 51.125 
Q 56.890625 40.328125 50.609375 34.8125 
Q 44.34375 29.296875 32.078125 29.296875 
L 19.671875 29.296875 
L 19.671875 0 
L 9.8125 0 
z
" id="DejaVuSans-80"/>
       <path d="M 9.8125 72.90625 
L 19.671875 72.90625 
L 19.671875 43.015625 
L 55.515625 43.015625 
L 55.515625 72.90625 
L 65.375 72.90625 
L 65.375 0 
L 55.515625 0 
L 55.515625 34.71875 
L 19.671875 34.71875 
L 19.671875 0 
L 9.8125 0 
z
" id="DejaVuSans-72"/>
       <path d="M 39.40625 66.21875 
Q 28.65625 66.21875 22.328125 58.203125 
Q 16.015625 50.203125 16.015625 36.375 
Q 16.015625 22.609375 22.328125 14.59375 
Q 28.65625 6.59375 39.40625 6.59375 
Q 50.140625 6.59375 56.421875 14.59375 
Q 62.703125 22.609375 62.703125 36.375 
Q 62.703125 50.203125 56.421875 58.203125 
Q 50.140625 66.21875 39.40625 66.21875 
z
M 39.40625 74.21875 
Q 54.734375 74.21875 63.90625 63.9375 
Q 73.09375 53.65625 73.09375 36.375 
Q 73.09375 19.140625 63.90625 8.859375 
Q 54.734375 -1.421875 39.40625 -1.421875 
Q 24.03125 -1.421875 14.8125 8.828125 
Q 5.609375 19.09375 5.609375 36.375 
Q 5.609375 53.65625 14.8125 63.9375 
Q 24.03125 74.21875 39.40625 74.21875 
z
" id="DejaVuSans-79"/>
       <path d="M -0.296875 72.90625 
L 61.375 72.90625 
L 61.375 64.59375 
L 35.5 64.59375 
L 35.5 0 
L 25.59375 0 
L 25.59375 64.59375 
L -0.296875 64.59375 
z
" id="DejaVuSans-84"/>
      </defs>
      <use xlink:href="#DejaVuSans-48"/>
      <use x="63.623047" xlink:href="#DejaVuSans-48"/>
      <use x="127.246094" xlink:href="#DejaVuSans-50"/>
      <use x="190.869141" xlink:href="#DejaVuSans-98"/>
      <use x="254.345703" xlink:href="#DejaVuSans-109"/>
      <use x="351.757812" xlink:href="#DejaVuSans-99"/>
      <use x="406.738281" xlink:href="#DejaVuSans-45"/>
      <use x="442.822266" xlink:href="#DejaVuSans-97"/>
      <use x="504.101562" xlink:href="#DejaVuSans-112"/>
      <use x="567.578125" xlink:href="#DejaVuSans-97"/>
      <use x="628.857422" xlink:href="#DejaVuSans-108"/>
      <use x="656.640625" xlink:href="#DejaVuSans-97"/>
      <use x="717.919922" xlink:href="#DejaVuSans-99"/>
      <use x="772.900391" xlink:href="#DejaVuSans-104"/>
      <use x="836.279297" xlink:href="#DejaVuSans-101"/>
      <use x="897.802734" xlink:href="#DejaVuSans-45"/>
      <use x="933.886719" xlink:href="#DejaVuSans-48"/>
      <use x="997.509766" xlink:href="#DejaVuSans-46"/>
      <use x="1029.296875" xlink:href="#DejaVuSans-49"/>
      <use x="1092.919922" xlink:href="#DejaVuSans-54"/>
      <use x="1156.542969" xlink:href="#DejaVuSans-46"/>
      <use x="1188.330078" xlink:href="#DejaVuSans-54"/>
      <use x="1251.953125" xlink:href="#DejaVuSans-45"/>
      <use x="1288.037109" xlink:href="#DejaVuSans-83"/>
      <use x="1351.513672" xlink:href="#DejaVuSans-78"/>
      <use x="1426.318359" xlink:href="#DejaVuSans-65"/>
      <use x="1494.726562" xlink:href="#DejaVuSans-80"/>
      <use x="1555.029297" xlink:href="#DejaVuSans-83"/>
      <use x="1618.505859" xlink:href="#DejaVuSans-72"/>
      <use x="1693.701172" xlink:href="#DejaVuSans-79"/>
      <use x="1772.412109" xlink:href="#DejaVuSans-84"/>
     </g>
    </g>
   </g>
  </g>
 </g>
 <defs>
  <clipPath id="p2c3d99dcc4">
   <rect height="266.112" width="357.12" x="57.6" y="41.472"/>
  </clipPath>
 </defs>
</svg>
